# xmcd
#
# Track frame offsets:
#	150
#	16044
#	26643
#	39520
#	53005
#	68783
#	82205
#	95040
#	106958
#	119562
#	133905
#	147654
#	163507
#	176937
#	190523
#	206849
#	219499
#	234682
#	250160
#	265439
#
# Disc length: 3784 seconds
#
# Revision: 0
# Processed by: cddbd v1.5.2PL0 Copyright (c) Steve Scherf et al.
# Submitted via: EasyCDDAExtractor 10.5.1.1
#
DISCID=300ec614
DTITLE=Various Artist - Unser Bestes Volksmusik Cd 2
DYEAR=1900
DGENRE=volksmusik
TTITLE0=Oswald Sattler - Wie Das Echo In Den Bergen
TTITLE1=Ursprung Buam - Ein Hoch Der Volksmusik
TTITLE2=Vincent and Fernando - Ich Schenk' Dir Liebe
TTITLE3=Marc Pircher - Vergiss Die Tiroler Nit
TTITLE4=Francine Jordi - Ich Werd Mit Dir Geh'n
TTITLE5=Reiner Kirsten - Hast Du Heut Zeit Für Mich
TTITLE6=Alpentrio Tirol - Laguna Romantica
TTITLE7=Zellberg Buam - Du Bringst Mein Herz Ins Schleudern
TTITLE8=Marlena Martinelli and Oliver Haidt - Kann Sein
TTITLE9=Bergfeuer - Ciao Maria, Ciao
TTITLE10=Eberhard Hertel - Das Wünsch Ich Dir
TTITLE11=Judith and Mel - Bis Ans Ende Der Zeit
TTITLE12=Die Jungen Zillertaler - Wenn Ich Di Tanzen Seh
TTITLE13=Alpenrebellen - Feiern Ist Ein Hammer
TTITLE14=Astrid Harzbecker - Tan Bis Zum Morgen Mit Mir
TTITLE15=Die Draufgänger - Am Liabsten Mag Ich Volksmusik
TTITLE16=Oliver Thomas - Irgendwann, Irgendwie, Irgendwo
TTITLE17=Angelina - Nur Für Dich
TTITLE18=Maxi Arland - Mein Herz Macht Bumm-Bumm-Bumm
TTITLE19=Stefanie Hertel and Stefan Mross - Die Kraft Der Träume
EXTD=
EXTT0=
EXTT1=
EXTT2=
EXTT3=
EXTT4=
EXTT5=
EXTT6=
EXTT7=
EXTT8=
EXTT9=
EXTT10=
EXTT11=
EXTT12=
EXTT13=
EXTT14=
EXTT15=
EXTT16=
EXTT17=
EXTT18=
EXTT19=
PLAYORDER=
